<svg width="256" height="256" viewBox="0 0 24 24" xmlns="http://www.w3.org/2000/svg"><rect x="0" y="0" width="24" height="24" rx="8" fill="none"/><svg xmlns="http://www.w3.org/2000/svg" viewBox="0 0 24 24" fill="#000000" x="0" y="0" width="24" height="24"><path fill="#000000" d="M12 3a9 9 0 1 0 0 18a9 9 0 0 0 0-18ZM1 12C1 5.925 5.925 1 12 1s11 4.925 11 11s-4.925 11-11 11S1 18.075 1 12Zm5-2a2 2 0 1 1 4 0a2 2 0 0 1-4 0Zm8 0a2 2 0 1 1 4 0a2 2 0 0 1-4 0Zm-2 4a1 1 0 1 0 0 2a1 1 0 0 0 0-2Zm-3 1a3 3 0 1 1 6 0a3 3 0 0 1-6 0Z"/></svg></svg>